<mxfile host="app.diagrams.net" modified="2023-07-07T13:59:02.260Z" agent="Mozilla/5.0 (Windows NT 10.0; Win64; x64) AppleWebKit/537.36 (KHTML, like Gecko) Chrome/114.0.0.0 Safari/537.36" etag="97LQwjGw9NI5dKen60xz" version="21.5.2" type="github">
  <diagram name="第 1 页" id="Ju0-avv5zDt16aAJNqDI">
    <mxGraphModel dx="1419" dy="349" grid="0" gridSize="10" guides="1" tooltips="1" connect="1" arrows="1" fold="1" page="1" pageScale="1" pageWidth="827" pageHeight="1169" background="none" math="1" shadow="0">
      <root>
        <mxCell id="0" />
        <mxCell id="1" parent="0" />
        <mxCell id="RUWoINaPIwdjfsUOad_V-12" value="" style="endArrow=none;html=1;rounded=0;" parent="1" edge="1">
          <mxGeometry width="50" height="50" relative="1" as="geometry">
            <mxPoint x="370" y="570" as="sourcePoint" />
            <mxPoint x="370" y="490" as="targetPoint" />
          </mxGeometry>
        </mxCell>
        <mxCell id="RUWoINaPIwdjfsUOad_V-13" value="" style="endArrow=none;html=1;rounded=0;" parent="1" edge="1">
          <mxGeometry width="50" height="50" relative="1" as="geometry">
            <mxPoint x="370" y="530" as="sourcePoint" />
            <mxPoint x="690" y="530" as="targetPoint" />
          </mxGeometry>
        </mxCell>
        <mxCell id="RUWoINaPIwdjfsUOad_V-18" value="$$arctanx$$" style="text;html=1;align=center;verticalAlign=middle;resizable=0;points=[];autosize=1;container=0;" parent="1" vertex="1">
          <mxGeometry x="383" y="386" width="90" height="30" as="geometry" />
        </mxCell>
        <mxCell id="RUWoINaPIwdjfsUOad_V-19" value="" style="endArrow=none;html=1;rounded=0;" parent="1" edge="1">
          <mxGeometry width="50" height="50" relative="1" as="geometry">
            <mxPoint x="450" y="570" as="sourcePoint" />
            <mxPoint x="450" y="490" as="targetPoint" />
          </mxGeometry>
        </mxCell>
        <mxCell id="RUWoINaPIwdjfsUOad_V-20" value="" style="endArrow=none;html=1;rounded=0;" parent="1" edge="1">
          <mxGeometry width="50" height="50" relative="1" as="geometry">
            <mxPoint x="530" y="570" as="sourcePoint" />
            <mxPoint x="530" y="490" as="targetPoint" />
          </mxGeometry>
        </mxCell>
        <mxCell id="RUWoINaPIwdjfsUOad_V-21" value="" style="endArrow=none;html=1;rounded=0;" parent="1" edge="1">
          <mxGeometry width="50" height="50" relative="1" as="geometry">
            <mxPoint x="610" y="570" as="sourcePoint" />
            <mxPoint x="610" y="490" as="targetPoint" />
          </mxGeometry>
        </mxCell>
        <mxCell id="RUWoINaPIwdjfsUOad_V-22" value="" style="endArrow=none;html=1;rounded=0;" parent="1" edge="1">
          <mxGeometry width="50" height="50" relative="1" as="geometry">
            <mxPoint x="690" y="570" as="sourcePoint" />
            <mxPoint x="690" y="490" as="targetPoint" />
          </mxGeometry>
        </mxCell>
        <mxCell id="RUWoINaPIwdjfsUOad_V-23" value="$$sinx$$" style="text;html=1;align=center;verticalAlign=middle;resizable=0;points=[];autosize=1;strokeColor=none;fillColor=none;" parent="1" vertex="1">
          <mxGeometry x="312" y="386" width="70" height="30" as="geometry" />
        </mxCell>
        <mxCell id="RUWoINaPIwdjfsUOad_V-24" value="$$x$$" style="text;html=1;align=center;verticalAlign=middle;resizable=0;points=[];autosize=1;strokeColor=none;fillColor=none;" parent="1" vertex="1">
          <mxGeometry x="235" y="386" width="60" height="30" as="geometry" />
        </mxCell>
        <mxCell id="RUWoINaPIwdjfsUOad_V-25" value="$$arcsinx$$" style="text;html=1;align=center;verticalAlign=middle;resizable=0;points=[];autosize=1;strokeColor=none;fillColor=none;" parent="1" vertex="1">
          <mxGeometry x="145" y="386" width="90" height="30" as="geometry" />
        </mxCell>
        <mxCell id="RUWoINaPIwdjfsUOad_V-26" value="$$tanx$$" style="text;html=1;align=center;verticalAlign=middle;resizable=0;points=[];autosize=1;strokeColor=none;fillColor=none;" parent="1" vertex="1">
          <mxGeometry x="75" y="386" width="70" height="30" as="geometry" />
        </mxCell>
        <mxCell id="UDgKOsN9z5PgCGdHtOf0-1" value="$$\frac{1}{6}x^3$$" style="text;html=1;align=center;verticalAlign=middle;resizable=0;points=[];autosize=1;strokeColor=none;fillColor=none;fontColor=#FF2F0F;" parent="1" vertex="1">
          <mxGeometry x="393.34" y="360" width="116" height="26" as="geometry" />
        </mxCell>
        <mxCell id="UDgKOsN9z5PgCGdHtOf0-2" value="" style="endArrow=none;html=1;rounded=0;" parent="1" edge="1">
          <mxGeometry width="50" height="50" relative="1" as="geometry">
            <mxPoint x="108" y="270" as="sourcePoint" />
            <mxPoint x="108" y="210" as="targetPoint" />
          </mxGeometry>
        </mxCell>
        <mxCell id="UDgKOsN9z5PgCGdHtOf0-3" value="" style="endArrow=none;html=1;rounded=0;" parent="1" edge="1">
          <mxGeometry width="50" height="50" relative="1" as="geometry">
            <mxPoint x="108" y="250" as="sourcePoint" />
            <mxPoint x="427.99999999999994" y="250" as="targetPoint" />
          </mxGeometry>
        </mxCell>
        <mxCell id="UDgKOsN9z5PgCGdHtOf0-4" value="" style="endArrow=none;html=1;rounded=0;" parent="1" edge="1">
          <mxGeometry width="50" height="50" relative="1" as="geometry">
            <mxPoint x="188" y="270" as="sourcePoint" />
            <mxPoint x="188" y="210" as="targetPoint" />
          </mxGeometry>
        </mxCell>
        <mxCell id="UDgKOsN9z5PgCGdHtOf0-5" value="" style="endArrow=none;html=1;rounded=0;" parent="1" edge="1">
          <mxGeometry width="50" height="50" relative="1" as="geometry">
            <mxPoint x="268" y="270" as="sourcePoint" />
            <mxPoint x="268" y="210" as="targetPoint" />
          </mxGeometry>
        </mxCell>
        <mxCell id="UDgKOsN9z5PgCGdHtOf0-6" value="" style="endArrow=none;html=1;rounded=0;" parent="1" edge="1">
          <mxGeometry width="50" height="50" relative="1" as="geometry">
            <mxPoint x="348" y="270" as="sourcePoint" />
            <mxPoint x="347.99999999999994" y="210" as="targetPoint" />
          </mxGeometry>
        </mxCell>
        <mxCell id="UDgKOsN9z5PgCGdHtOf0-7" value="" style="endArrow=none;html=1;rounded=0;" parent="1" edge="1">
          <mxGeometry width="50" height="50" relative="1" as="geometry">
            <mxPoint x="428" y="270" as="sourcePoint" />
            <mxPoint x="427.99999999999994" y="210" as="targetPoint" />
          </mxGeometry>
        </mxCell>
        <mxCell id="UDgKOsN9z5PgCGdHtOf0-8" value="$$\frac{x}{1+x}$$" style="text;html=1;align=center;verticalAlign=middle;resizable=0;points=[];autosize=1;strokeColor=none;fillColor=none;" parent="1" vertex="1">
          <mxGeometry x="369" y="270" width="120" height="30" as="geometry" />
        </mxCell>
        <mxCell id="UDgKOsN9z5PgCGdHtOf0-9" value="$$ln(1+x)$$&lt;br&gt;" style="text;html=1;align=center;verticalAlign=middle;resizable=0;points=[];autosize=1;strokeColor=none;fillColor=none;" parent="1" vertex="1">
          <mxGeometry x="312" y="280" width="90" height="30" as="geometry" />
        </mxCell>
        <mxCell id="UDgKOsN9z5PgCGdHtOf0-10" value="$$x$$" style="text;html=1;align=center;verticalAlign=middle;resizable=0;points=[];autosize=1;strokeColor=none;fillColor=none;" parent="1" vertex="1">
          <mxGeometry x="238" y="270" width="60" height="30" as="geometry" />
        </mxCell>
        <mxCell id="UDgKOsN9z5PgCGdHtOf0-11" value="$$e^x-1$$" style="text;html=1;align=center;verticalAlign=middle;resizable=0;points=[];autosize=1;strokeColor=none;fillColor=none;" parent="1" vertex="1">
          <mxGeometry x="155" y="270" width="80" height="30" as="geometry" />
        </mxCell>
        <mxCell id="UDgKOsN9z5PgCGdHtOf0-12" value="$$\frac{x}{1-x}$$" style="text;html=1;align=center;verticalAlign=middle;resizable=0;points=[];autosize=1;strokeColor=none;fillColor=none;" parent="1" vertex="1">
          <mxGeometry x="58" y="270" width="110" height="30" as="geometry" />
        </mxCell>
        <mxCell id="UDgKOsN9z5PgCGdHtOf0-13" value="$$\frac{1}{2}x^2$$" style="text;html=1;align=center;verticalAlign=middle;resizable=0;points=[];autosize=1;strokeColor=none;fillColor=none;fontColor=#FF2F0F;" parent="1" vertex="1">
          <mxGeometry x="391.34" y="235" width="120" height="30" as="geometry" />
        </mxCell>
        <mxCell id="UDgKOsN9z5PgCGdHtOf0-14" value="&lt;div&gt;$$&lt;span style=&quot;background-color: initial;&quot;&gt;\lim _{x \rightarrow \square} f(x)=A \Leftrightarrow f(x)=A+\alpha&lt;/span&gt;&lt;span style=&quot;background-color: initial;&quot;&gt;$$&lt;/span&gt;&lt;/div&gt;&lt;div&gt;&lt;br&gt;&lt;/div&gt;" style="text;html=1;align=center;verticalAlign=middle;resizable=0;points=[];autosize=1;strokeColor=none;fillColor=none;" parent="1" vertex="1">
          <mxGeometry x="4" y="565" width="381" height="41" as="geometry" />
        </mxCell>
        <mxCell id="UDgKOsN9z5PgCGdHtOf0-15" value="$$\lim _{x \rightarrow \square} f(x)=A \Leftrightarrow f(x)=A+\alpha&lt;div&gt;\lim _{n \rightarrow \infty} x_n=a \Leftrightarrow x_n=a+\alpha$$&lt;/div&gt;" style="text;html=1;align=center;verticalAlign=middle;resizable=0;points=[];autosize=1;strokeColor=none;fillColor=none;" parent="1" vertex="1">
          <mxGeometry x="-101" y="624" width="368" height="41" as="geometry" />
        </mxCell>
        <mxCell id="UDgKOsN9z5PgCGdHtOf0-16" value="$$\lim _{x \rightarrow \square} f(x)=A \Leftrightarrow f(x)=A+\alpha$$&lt;br&gt;" style="text;html=1;align=center;verticalAlign=middle;resizable=0;points=[];autosize=1;strokeColor=none;fillColor=none;" parent="1" vertex="1">
          <mxGeometry x="127" y="704" width="381" height="26" as="geometry" />
        </mxCell>
        <mxCell id="UDgKOsN9z5PgCGdHtOf0-18" value="$$\lim _{n \rightarrow \infty} x_n=a \Leftrightarrow x_n=a+\alpha$$&lt;br&gt;" style="text;html=1;align=center;verticalAlign=middle;resizable=0;points=[];autosize=1;strokeColor=none;fillColor=none;" parent="1" vertex="1">
          <mxGeometry x="130" y="738" width="369" height="26" as="geometry" />
        </mxCell>
        <mxCell id="UDgKOsN9z5PgCGdHtOf0-19" value="$$\lim&amp;nbsp;_{n&amp;nbsp;\rightarrow&amp;nbsp;\infty}&amp;nbsp;x^n=\left\{\begin{array}{cc}&lt;br&gt;0,&amp;nbsp;&amp;amp;&amp;nbsp;|x|&amp;lt;1,&amp;nbsp;\\&lt;br&gt;\infty,&amp;nbsp;&amp;amp;&amp;nbsp;|x|&amp;gt;1,&amp;nbsp;\\&lt;br&gt;1,&amp;nbsp;&amp;amp;&amp;nbsp;x=1,&amp;nbsp;\\&lt;br&gt;\text&amp;nbsp;{&amp;nbsp;不存在,&amp;nbsp;}&amp;nbsp;&amp;amp;&amp;nbsp;x=-1&amp;nbsp;.&lt;br&gt;\end{array}\right.$$&lt;br&gt;" style="text;html=1;align=center;verticalAlign=middle;resizable=0;points=[];autosize=1;strokeColor=none;fillColor=none;" parent="1" vertex="1">
          <mxGeometry x="159" y="803" width="307" height="98" as="geometry" />
        </mxCell>
        <mxCell id="UDgKOsN9z5PgCGdHtOf0-20" value="&lt;div&gt;$$&lt;/div&gt;&lt;div&gt;\text{当}n→\infty \text{时}&lt;/div&gt;&lt;div&gt;\\&lt;/div&gt;&lt;div&gt;\,\,&amp;nbsp; &amp;nbsp; &amp;nbsp; &amp;nbsp;\sqrt[n]{a}→1&lt;/div&gt;&lt;div&gt;\\&lt;/div&gt;&lt;div&gt;\,\,&amp;nbsp; &amp;nbsp; &amp;nbsp; &amp;nbsp;\sqrt[n]{n}→1&lt;/div&gt;&lt;div&gt;\\&lt;/div&gt;&lt;div&gt;\,\,&amp;nbsp; &amp;nbsp; &amp;nbsp; &amp;nbsp;\sqrt[n]{n!}→\infty&amp;nbsp;&lt;/div&gt;&lt;div&gt;\\&lt;/div&gt;&lt;div&gt;&lt;br&gt;&lt;/div&gt;&lt;div&gt;$$&lt;/div&gt;" style="text;html=1;align=center;verticalAlign=middle;resizable=0;points=[];autosize=1;strokeColor=none;fillColor=none;" parent="1" vertex="1">
          <mxGeometry x="381" y="910" width="151" height="170" as="geometry" />
        </mxCell>
        <mxCell id="UDgKOsN9z5PgCGdHtOf0-21" value="$$\text{当}n→\infty \text{时}&lt;div&gt;\\&lt;/div&gt;&lt;div&gt;\,\,&amp;nbsp; &amp;nbsp; &amp;nbsp; &amp;nbsp;\sqrt[n]{a}→1&lt;/div&gt;&lt;div&gt;\\&lt;/div&gt;&lt;div&gt;\,\,&amp;nbsp; &amp;nbsp; &amp;nbsp; &amp;nbsp;\sqrt[n]{n}→1&lt;/div&gt;&lt;div&gt;\\&lt;/div&gt;&lt;div&gt;\,\,&amp;nbsp; &amp;nbsp; &amp;nbsp; &amp;nbsp;\sqrt[n]{n!}→\infty&amp;nbsp;&lt;/div&gt;&lt;div&gt;\\$$&lt;/div&gt;&lt;div&gt;&lt;br&gt;&lt;/div&gt;" style="text;html=1;align=center;verticalAlign=middle;resizable=0;points=[];autosize=1;strokeColor=none;fillColor=none;" parent="1" vertex="1">
          <mxGeometry x="130" y="918" width="164" height="142" as="geometry" />
        </mxCell>
        <mxCell id="wMzdKKrfQSrLfc8zpYH4-1" value="" style="endArrow=none;html=1;rounded=0;" edge="1" parent="1">
          <mxGeometry width="50" height="50" relative="1" as="geometry">
            <mxPoint x="108" y="390" as="sourcePoint" />
            <mxPoint x="107.57999999999998" y="330" as="targetPoint" />
          </mxGeometry>
        </mxCell>
        <mxCell id="wMzdKKrfQSrLfc8zpYH4-2" value="" style="endArrow=none;html=1;rounded=0;" edge="1" parent="1">
          <mxGeometry width="50" height="50" relative="1" as="geometry">
            <mxPoint x="107.57999999999998" y="370" as="sourcePoint" />
            <mxPoint x="427.58000000000004" y="370" as="targetPoint" />
          </mxGeometry>
        </mxCell>
        <mxCell id="wMzdKKrfQSrLfc8zpYH4-7" value="大" style="text;html=1;align=center;verticalAlign=middle;resizable=0;points=[];autosize=1;strokeColor=none;fillColor=none;" vertex="1" parent="1">
          <mxGeometry x="86" y="178" width="40" height="30" as="geometry" />
        </mxCell>
        <mxCell id="wMzdKKrfQSrLfc8zpYH4-8" value="小" style="text;html=1;align=center;verticalAlign=middle;resizable=0;points=[];autosize=1;strokeColor=none;fillColor=none;" vertex="1" parent="1">
          <mxGeometry x="408" y="178" width="40" height="30" as="geometry" />
        </mxCell>
        <mxCell id="wMzdKKrfQSrLfc8zpYH4-11" value="" style="endArrow=none;html=1;rounded=0;" edge="1" parent="1">
          <mxGeometry width="50" height="50" relative="1" as="geometry">
            <mxPoint x="188" y="390" as="sourcePoint" />
            <mxPoint x="188" y="330" as="targetPoint" />
          </mxGeometry>
        </mxCell>
        <mxCell id="wMzdKKrfQSrLfc8zpYH4-12" value="" style="endArrow=none;html=1;rounded=0;" edge="1" parent="1">
          <mxGeometry width="50" height="50" relative="1" as="geometry">
            <mxPoint x="267" y="390" as="sourcePoint" />
            <mxPoint x="267" y="330" as="targetPoint" />
          </mxGeometry>
        </mxCell>
        <mxCell id="wMzdKKrfQSrLfc8zpYH4-13" value="" style="endArrow=none;html=1;rounded=0;" edge="1" parent="1">
          <mxGeometry width="50" height="50" relative="1" as="geometry">
            <mxPoint x="348" y="390" as="sourcePoint" />
            <mxPoint x="348" y="330" as="targetPoint" />
          </mxGeometry>
        </mxCell>
        <mxCell id="wMzdKKrfQSrLfc8zpYH4-14" value="" style="endArrow=none;html=1;rounded=0;" edge="1" parent="1">
          <mxGeometry width="50" height="50" relative="1" as="geometry">
            <mxPoint x="428" y="390" as="sourcePoint" />
            <mxPoint x="428" y="330" as="targetPoint" />
          </mxGeometry>
        </mxCell>
      </root>
    </mxGraphModel>
  </diagram>
</mxfile>
